<svg version="1.1" xmlns="http://www.w3.org/2000/svg" xmlns:xlink="http://www.w3.org/1999/xlink" width="24" height="24" viewBox="0,0,256,256"><g fill="#fffdfd" fill-rule="evenodd" stroke="none" stroke-width="1" stroke-linecap="butt" stroke-linejoin="miter" stroke-miterlimit="10" stroke-dasharray="" stroke-dashoffset="0" font-family="none" font-weight="none" font-size="none" text-anchor="none" style="mix-blend-mode: normal"><g transform="translate(-1.35093,-1.58507) scale(10.66667,10.66667)"><path d="M13,11c0,2.7614 -2.2386,5 -5,5c-2.76142,0 -5,-2.2386 -5,-5c0,-2.76142 2.23858,-5 5,-5c2.7614,0 5,2.23858 5,5zM14.0425,16.2431c-1.4667,1.6889 -3.6299,2.7569 -6.0425,2.7569c-4.41828,0 -8,-3.5817 -8,-8c0,-4.41828 3.58172,-8 8,-8c4.4183,0 8,3.58172 8,8c0,0.9287 -0.1583,1.8205 -0.4493,2.6497l8.7026,5.0531l-1.5065,2.5944z"></path></g></g></svg>