<svg version="1.1" xmlns="http://www.w3.org/2000/svg" xmlns:xlink="http://www.w3.org/1999/xlink" width="24" height="24" viewBox="0,0,256,256"><g fill="#ffffff" fill-rule="evenodd" stroke="none" stroke-width="1" stroke-linecap="butt" stroke-linejoin="miter" stroke-miterlimit="10" stroke-dasharray="" stroke-dashoffset="0" font-family="none" font-weight="none" font-size="none" text-anchor="none" style="mix-blend-mode: normal"><g transform="translate(0.00224,0) scale(10.66667,10.66667)"><path d="M13,4.57092c3.3922,0.48532 5.9998,3.40268 5.9998,6.92908v3.7538c1.0488,0.0769 2.085,0.1707 3.1072,0.2809l-0.2144,1.9885c-3.1707,-0.3419 -6.4836,-0.5232 -9.8928,-0.5232c-3.40924,0 -6.72216,0.1813 -9.89281,0.5232l-0.21441,-1.9885c1.02215,-0.1102 2.05837,-0.204 3.1072,-0.2809v-3.7538c0,-3.52655 2.60782,-6.44401 6.00022,-6.92914v-2.57086h2zM8.62568,19.3712c0.03642,1.1461 1.52522,2.6288 3.37362,2.6288c1.8484,0 3.3372,-1.4827 3.3737,-2.6288c0.007,-0.2223 -0.1974,-0.3712 -0.4199,-0.3712h-5.90755c-0.22247,0 -0.42693,0.1489 -0.41987,0.3712z"></path></g></g></svg>